<svg width="20" height="20" viewBox="0 0 20 20" fill="none" xmlns="http://www.w3.org/2000/svg">
<path d="M6.66663 4.7915C6.32496 4.7915 6.04163 4.50817 6.04163 4.1665V1.6665C6.04163 1.32484 6.32496 1.0415 6.66663 1.0415C7.00829 1.0415 7.29163 1.32484 7.29163 1.6665V4.1665C7.29163 4.50817 7.00829 4.7915 6.66663 4.7915Z" fill="#343434" fill-opacity="0.4"/>
<path d="M13.3334 4.7915C12.9917 4.7915 12.7084 4.50817 12.7084 4.1665V1.6665C12.7084 1.32484 12.9917 1.0415 13.3334 1.0415C13.675 1.0415 13.9584 1.32484 13.9584 1.6665V4.1665C13.9584 4.50817 13.675 4.7915 13.3334 4.7915Z" fill="#343434" fill-opacity="0.4"/>
<path d="M17.0833 8.2002H2.91663C2.57496 8.2002 2.29163 7.91686 2.29163 7.5752C2.29163 7.23353 2.57496 6.9502 2.91663 6.9502H17.0833C17.425 6.9502 17.7083 7.23353 17.7083 7.5752C17.7083 7.91686 17.425 8.2002 17.0833 8.2002Z" fill="#343434" fill-opacity="0.4"/>
<path d="M13.3333 18.9582H6.66667C3.625 18.9582 1.875 17.2082 1.875 14.1665V7.08317C1.875 4.0415 3.625 2.2915 6.66667 2.2915H13.3333C16.375 2.2915 18.125 4.0415 18.125 7.08317V14.1665C18.125 17.2082 16.375 18.9582 13.3333 18.9582ZM6.66667 3.5415C4.28333 3.5415 3.125 4.69984 3.125 7.08317V14.1665C3.125 16.5498 4.28333 17.7082 6.66667 17.7082H13.3333C15.7167 17.7082 16.875 16.5498 16.875 14.1665V7.08317C16.875 4.69984 15.7167 3.5415 13.3333 3.5415H6.66667Z" fill="#343434" fill-opacity="0.4"/>
<path d="M7.08333 12.0832C6.975 12.0832 6.86666 12.0582 6.76666 12.0165C6.66666 11.9749 6.57501 11.9165 6.49167 11.8415C6.41667 11.7582 6.35832 11.6665 6.31666 11.5665C6.27499 11.4665 6.25 11.3582 6.25 11.2498C6.25 11.0332 6.34167 10.8165 6.49167 10.6582C6.57501 10.5832 6.66666 10.5248 6.76666 10.4832C6.91666 10.4165 7.08334 10.3998 7.25001 10.4332C7.30001 10.4415 7.35 10.4582 7.4 10.4832C7.45 10.4998 7.5 10.5249 7.55 10.5582C7.59166 10.5915 7.63333 10.6249 7.67499 10.6582C7.70833 10.6999 7.74999 10.7415 7.77499 10.7832C7.80832 10.8332 7.83334 10.8832 7.85001 10.9332C7.87501 10.9832 7.89168 11.0332 7.90001 11.0832C7.90834 11.1415 7.91667 11.1915 7.91667 11.2498C7.91667 11.4665 7.82499 11.6832 7.67499 11.8415C7.51666 11.9915 7.3 12.0832 7.08333 12.0832Z" fill="#343434" fill-opacity="0.4"/>
<path d="M9.99996 12.0832C9.78329 12.0832 9.56663 11.9916 9.4083 11.8416C9.37497 11.7999 9.34164 11.7582 9.3083 11.7166C9.27497 11.6666 9.24995 11.6166 9.23328 11.5666C9.20828 11.5166 9.19162 11.4666 9.18328 11.4166C9.17495 11.3582 9.16663 11.3082 9.16663 11.2499C9.16663 11.1416 9.19161 11.0332 9.23328 10.9332C9.27495 10.8332 9.3333 10.7416 9.4083 10.6582C9.64163 10.4249 10.0166 10.3499 10.3166 10.4832C10.425 10.5249 10.5083 10.5832 10.5916 10.6582C10.7416 10.8166 10.8333 11.0332 10.8333 11.2499C10.8333 11.3082 10.825 11.3582 10.8166 11.4166C10.8083 11.4666 10.7916 11.5166 10.7666 11.5666C10.75 11.6166 10.7249 11.6666 10.6916 11.7166C10.6583 11.7582 10.625 11.7999 10.5916 11.8416C10.5083 11.9166 10.425 11.9749 10.3166 12.0166C10.2166 12.0582 10.1083 12.0832 9.99996 12.0832Z" fill="#343434" fill-opacity="0.4"/>
<path d="M7.08333 15.0002C6.975 15.0002 6.86666 14.9752 6.76666 14.9336C6.66666 14.8919 6.57501 14.8335 6.49167 14.7585C6.41667 14.6752 6.35832 14.5919 6.31666 14.4836C6.27499 14.3836 6.25 14.2752 6.25 14.1669C6.25 13.9502 6.34167 13.7336 6.49167 13.5752C6.57501 13.5002 6.66666 13.4419 6.76666 13.4002C7.075 13.2669 7.44166 13.3419 7.67499 13.5752C7.70833 13.6169 7.74999 13.6586 7.77499 13.7002C7.80832 13.7502 7.83334 13.8002 7.85001 13.8502C7.87501 13.9002 7.89168 13.9502 7.90001 14.0086C7.90834 14.0586 7.91667 14.1169 7.91667 14.1669C7.91667 14.3836 7.82499 14.6002 7.67499 14.7585C7.51666 14.9085 7.3 15.0002 7.08333 15.0002Z" fill="#343434" fill-opacity="0.4"/>
</svg>
