<svg width="30" height="31" viewBox="0 0 30 31" fill="none" xmlns="http://www.w3.org/2000/svg">
<path d="M8.40467 27.861H21.3591C24.7708 27.861 26.1305 25.772 26.2912 23.2256L26.934 13.0153C27.107 10.3453 24.9809 8.08324 22.2986 8.08324C21.5445 8.08324 20.8523 7.6506 20.5062 6.9831L19.6162 5.19074C19.0476 4.06588 17.5643 3.13879 16.3034 3.13879H13.4727C12.1995 3.13879 10.7162 4.06588 10.1476 5.19074L9.25759 6.9831C8.91148 7.6506 8.21925 8.08324 7.46523 8.08324C4.78287 8.08324 2.65675 10.3453 2.82981 13.0153L3.47259 23.2256C3.62092 25.772 4.993 27.861 8.40467 27.861Z" stroke="#343434" stroke-opacity="0.7" stroke-width="1.5" stroke-linecap="round" stroke-linejoin="round"/>
<path d="M13.0277 10.5555H16.736" stroke="#343434" stroke-opacity="0.7" stroke-width="1.5" stroke-linecap="round" stroke-linejoin="round"/>
<path d="M14.8819 22.9167C17.0945 22.9167 18.8992 21.112 18.8992 18.8993C18.8992 16.6867 17.0945 14.882 14.8819 14.882C12.6692 14.882 10.8645 16.6867 10.8645 18.8993C10.8645 21.112 12.6692 22.9167 14.8819 22.9167Z" stroke="#343434" stroke-opacity="0.7" stroke-width="1.5" stroke-linecap="round" stroke-linejoin="round"/>
</svg>
