<svg width="34" height="35" viewBox="0 0 34 35" fill="none" xmlns="http://www.w3.org/2000/svg">
<path d="M33.585 21.6648C33.3193 21.3992 32.9591 21.25 32.5834 21.25C32.2078 21.25 31.8475 21.3992 31.5818 21.6648L27.6251 25.6215L23.6683 21.6648C23.4011 21.4067 23.0433 21.2639 22.6718 21.2672C22.3004 21.2704 21.9451 21.4194 21.6824 21.682C21.4198 21.9447 21.2708 22.3 21.2675 22.6715C21.2643 23.0429 21.4071 23.4008 21.6652 23.668L25.6219 27.6247L21.6652 31.5815C21.5299 31.7121 21.4219 31.8685 21.3477 32.0413C21.2734 32.2141 21.2344 32.4 21.2327 32.5881C21.2311 32.7762 21.2669 32.9628 21.3382 33.1369C21.4094 33.311 21.5146 33.4692 21.6476 33.6022C21.7806 33.7352 21.9388 33.8404 22.1129 33.9116C22.287 33.9829 22.4735 34.0187 22.6616 34.0171C22.8497 34.0154 23.0356 33.9763 23.2085 33.9021C23.3813 33.8279 23.5376 33.7199 23.6683 33.5846L27.6251 29.6279L31.5818 33.5846C31.849 33.8427 32.2069 33.9855 32.5783 33.9822C32.9498 33.979 33.3051 33.83 33.5677 33.5674C33.8304 33.3047 33.9794 32.9494 33.9826 32.5779C33.9858 32.2065 33.8431 31.8486 33.585 31.5815L29.6282 27.6247L33.585 23.668C33.8506 23.4023 33.9998 23.042 33.9998 22.6664C33.9998 22.2907 33.8506 21.9304 33.585 21.6648Z" fill="#333333"/>
<path d="M17 31.1667C14.1981 31.1667 11.4591 30.3358 9.12943 28.7792C6.79973 27.2225 4.98395 25.01 3.91171 22.4214C2.83947 19.8327 2.55893 16.9843 3.10555 14.2362C3.65217 11.4882 5.00142 8.9639 6.98266 6.98266C8.9639 5.00142 11.4882 3.65217 14.2362 3.10555C16.9843 2.55893 19.8327 2.83947 22.4214 3.91171C25.01 4.98395 27.2225 6.79973 28.7792 9.12943C30.3358 11.4591 31.1667 14.1981 31.1667 17C31.1667 17.3757 31.3159 17.7361 31.5816 18.0017C31.8473 18.2674 32.2076 18.4167 32.5833 18.4167C32.9591 18.4167 33.3194 18.2674 33.5851 18.0017C33.8507 17.7361 34 17.3757 34 17C34 13.6377 33.003 10.3509 31.135 7.55531C29.267 4.75968 26.612 2.58074 23.5056 1.29406C20.3993 0.00736586 16.9811 -0.329291 13.6835 0.326658C10.3858 0.982606 7.35668 2.6017 4.97919 4.97919C2.6017 7.35668 0.982606 10.3858 0.326658 13.6835C-0.329291 16.9811 0.00736586 20.3993 1.29406 23.5056C2.58074 26.612 4.75968 29.267 7.55531 31.135C10.3509 33.003 13.6377 34 17 34C17.3757 34 17.7361 33.8507 18.0017 33.5851C18.2674 33.3194 18.4167 32.9591 18.4167 32.5833C18.4167 32.2076 18.2674 31.8473 18.0017 31.5816C17.7361 31.3159 17.3757 31.1667 17 31.1667Z" fill="#333333"/>
<path d="M17 8.5C16.6243 8.5 16.2639 8.64926 15.9983 8.91493C15.7326 9.18061 15.5833 9.54094 15.5833 9.91667V16.4135L11.7484 20.2484C11.6131 20.3791 11.5052 20.5354 11.4309 20.7082C11.3567 20.8811 11.3176 21.067 11.316 21.2551C11.3143 21.4432 11.3502 21.6297 11.4214 21.8038C11.4926 21.9779 11.5978 22.1361 11.7309 22.2691C11.8639 22.4021 12.022 22.5073 12.1961 22.5786C12.3702 22.6498 12.5568 22.6856 12.7449 22.684C12.933 22.6824 13.1189 22.6433 13.2917 22.569C13.4646 22.4948 13.6209 22.3869 13.7516 22.2516L18.0016 18.0016C18.2673 17.736 18.4166 17.3757 18.4167 17V9.91667C18.4167 9.54094 18.2674 9.18061 18.0017 8.91493C17.7361 8.64926 17.3757 8.5 17 8.5Z" fill="#333333"/>
</svg>
