<svg width="36" height="36" viewBox="0 0 36 36" fill="none" xmlns="http://www.w3.org/2000/svg">
<path d="M31.476 18.8023C31.6388 16.0699 30.9671 13.3525 29.55 11.0106C28.1329 8.6687 26.0374 6.81289 23.5414 5.68929C21.0453 4.56569 18.2667 4.22739 15.574 4.71927C12.8813 5.21114 10.4017 6.50994 8.46411 8.44343C6.5265 10.3769 5.22243 12.8537 4.72483 15.5454C4.22722 18.237 4.5596 21.0164 5.67789 23.5148C6.79617 26.0132 8.64752 28.1127 10.9864 29.5347C13.3253 30.9568 16.0412 31.6343 18.774 31.4773M24 28.4998H33M28.5 23.9998V32.9998" stroke="white" stroke-width="3" stroke-linecap="round" stroke-linejoin="round"/>
<path d="M18 10.5V18L22.5 22.5" stroke="white" stroke-width="3" stroke-linecap="round" stroke-linejoin="round"/>
</svg>
