<svg width="30" height="30" viewBox="0 0 30 30" fill="none" xmlns="http://www.w3.org/2000/svg">
<path d="M15.7605 0C16.4649 0.0980261 17.1733 0.168463 17.8707 0.299947C19.8922 0.680899 21.7412 1.48624 23.4376 2.64318C23.5653 2.72585 23.6755 2.83293 23.7617 2.95826C23.848 3.08359 23.9086 3.22472 23.9402 3.37355C23.9718 3.52237 23.9736 3.67597 23.9457 3.82552C23.9178 3.97508 23.8606 4.11765 23.7775 4.24506C23.6975 4.3748 23.5924 4.48726 23.4684 4.57583C23.3444 4.66439 23.2039 4.72728 23.0552 4.7608C22.9065 4.79432 22.7526 4.79779 22.6026 4.77102C22.4526 4.74424 22.3094 4.68776 22.1815 4.60488C21.1325 3.93572 20.0531 3.33465 18.858 2.97248C14.8307 1.75097 11.0564 2.28043 7.60847 4.7164C5.11086 6.48029 3.44617 8.86813 2.6966 11.8406C1.78208 15.467 2.33091 18.8938 4.41998 21.9954C6.5519 25.1616 9.5461 27.0435 13.3574 27.5436C16.0956 27.9016 18.6754 27.378 21.0956 26.0526C21.2411 25.9728 21.3838 25.8883 21.5317 25.8143C22.1281 25.5155 22.7914 25.7016 23.1072 26.2528C23.4306 26.8175 23.268 27.5301 22.6634 27.8435C21.7477 28.319 20.8244 28.7932 19.8606 29.1519C18.1423 29.785 16.3149 30.0686 14.4856 29.986C10.1577 29.8152 6.53546 28.1077 3.66218 24.8728C1.60774 22.5607 0.414996 19.8459 0.0510672 16.7724C0.0396019 16.7268 0.022445 16.6829 0 16.6415C0 15.5478 0 14.4542 0 13.3609C0.0686769 12.97 0.131484 12.5779 0.206031 12.1869C0.78186 9.20095 2.1372 6.6194 4.27499 4.46165C6.51609 2.19942 9.20917 0.774818 12.3548 0.232446C12.9201 0.135007 13.4918 0.0774834 14.0606 0.00176267L15.7605 0Z" fill="#333333"/>
<path d="M15.2304 20.7367C14.2378 20.7367 13.5058 20.4368 12.8907 19.8563C10.8851 17.9568 8.8808 16.0559 6.87763 14.1537C6.33701 13.6395 6.3018 12.9269 6.77314 12.435C7.24449 11.9431 7.95004 11.9478 8.49594 12.4638C10.4525 14.3147 12.4076 16.1682 14.3611 18.0243C14.9064 18.542 15.2456 18.5244 15.7111 17.9421C19.6752 13.0122 23.6393 8.08373 27.6034 3.1566C27.79 2.92475 28.0008 2.68702 28.2491 2.53734C28.7016 2.26674 29.2822 2.40233 29.6338 2.79385C29.9959 3.19711 30.0546 3.77352 29.7236 4.22433C29.3086 4.79018 28.8566 5.32961 28.4164 5.87727C24.7555 10.4334 21.0938 14.9894 17.431 19.5452C16.8264 20.2983 16.0492 20.6968 15.2304 20.7367Z" fill="#333333"/>
<path d="M29.9408 14.8605C29.8821 18.1089 29.0433 20.7802 27.4626 23.2227C27.0622 23.8414 26.3925 24.0157 25.792 23.6547C25.249 23.3278 25.0841 22.6069 25.4633 22.0111C26.2651 20.7503 26.8855 19.4143 27.236 17.961C27.7164 15.9798 27.7107 13.9118 27.2195 11.9333C27.1145 11.5001 27.1556 11.0933 27.4719 10.7593C27.7742 10.4382 28.1499 10.3079 28.5872 10.4112C29.0568 10.5221 29.3503 10.8268 29.4677 11.2917C29.7935 12.569 29.9514 13.8732 29.9408 14.8605Z" fill="#333333"/>
</svg>
