<svg width="36" height="36" viewBox="0 0 36 36" fill="none" xmlns="http://www.w3.org/2000/svg">
<defs>
<clipPath id="clip0_3200_2209">
<rect width="36" height="36" fill="white"/>
</clipPath>
</defs>
<g clip-path="url(#clip0_3200_2209)">
<path fill-rule="evenodd" clip-rule="evenodd" d="M19.539 3.40496C19.8614 3.29764 20.2039 3.26474 20.5409 3.30872C20.8778 3.3527 21.2004 3.47243 21.4844 3.65891C21.7685 3.84539 22.0066 4.09378 22.1809 4.38545C22.3553 4.67711 22.4613 5.00447 22.491 5.34296L22.5 5.54096V13.77L28.191 14.91C28.6653 15.0045 29.0964 15.2493 29.4207 15.6081C29.7449 15.9669 29.9449 16.4206 29.991 16.902L30 17.115V28.5H31.5C31.8823 28.5004 32.25 28.6468 32.5281 28.9092C32.8061 29.1717 32.9734 29.5304 32.9958 29.9121C33.0182 30.2937 32.894 30.6695 32.6486 30.9627C32.4032 31.2559 32.0551 31.4443 31.6755 31.4895L31.5 31.5H4.5C4.11768 31.4995 3.74995 31.3531 3.47195 31.0907C3.19394 30.8282 3.02665 30.4695 3.00424 30.0879C2.98184 29.7062 3.10601 29.3304 3.3514 29.0372C3.59678 28.744 3.94486 28.5556 4.3245 28.5105L4.5 28.5H6V9.53996C6 8.63996 6.534 7.83596 7.347 7.47896L7.539 7.40546L19.539 3.40496ZM19.5 6.58196L9 10.0815V28.5H19.5V6.58196ZM22.5 16.8315V28.5H27V17.73L22.5 16.8315Z" fill="#2E3234"/>
</g>
</svg>
