<svg width="26" height="26" viewBox="0 0 26 26" fill="none" xmlns="http://www.w3.org/2000/svg">
<path d="M9.5 20H9C5 20 3 19 3 14V9C3 5 5 3 9 3H17C21 3 23 5 23 9V14C23 18 21 20 17 20H16.5C16.19 20 15.89 20.15 15.7 20.4L14.2 22.4C13.54 23.28 12.46 23.28 11.8 22.4L10.3 20.4C10.14 20.18 9.77 20 9.5 20Z" stroke="#343434" stroke-opacity="0.7" stroke-width="1.5" stroke-miterlimit="10" stroke-linecap="round" stroke-linejoin="round"/>
<path d="M16.9965 12H17.0054" stroke="#343434" stroke-opacity="0.7" stroke-width="2" stroke-linecap="round" stroke-linejoin="round"/>
<path d="M12.9955 12H13.0045" stroke="#343434" stroke-opacity="0.7" stroke-width="2" stroke-linecap="round" stroke-linejoin="round"/>
<path d="M8.99451 12H9.00349" stroke="#343434" stroke-opacity="0.7" stroke-width="2" stroke-linecap="round" stroke-linejoin="round"/>
</svg>
