<svg width="5" height="20" viewBox="0 0 5 20" fill="none" xmlns="http://www.w3.org/2000/svg">
<path d="M2.9167 4.16665C4.06729 4.16665 5.00002 3.23391 5.00002 2.08332C5.00002 0.932736 4.06729 0 2.9167 0C1.76611 0 0.833374 0.932736 0.833374 2.08332C0.833374 3.23391 1.76611 4.16665 2.9167 4.16665Z" fill="#343434" fill-opacity="0.6"/>
<path d="M2.9167 12.0832C4.06729 12.0832 5.00002 11.1504 5.00002 9.99983C5.00002 8.84924 4.06729 7.9165 2.9167 7.9165C1.76611 7.9165 0.833374 8.84924 0.833374 9.99983C0.833374 11.1504 1.76611 12.0832 2.9167 12.0832Z" fill="#343434" fill-opacity="0.6"/>
<path d="M2.9167 20.0002C4.06729 20.0002 5.00002 19.0674 5.00002 17.9168C5.00002 16.7662 4.06729 15.8335 2.9167 15.8335C1.76611 15.8335 0.833374 16.7662 0.833374 17.9168C0.833374 19.0674 1.76611 20.0002 2.9167 20.0002Z" fill="#343434" fill-opacity="0.6"/>
</svg>
