<svg width="40" height="40" viewBox="0 0 40 40" fill="none" xmlns="http://www.w3.org/2000/svg">
<path d="M33.5153 0.0020823C34.2601 0.26668 34.5091 0.801084 34.4914 1.57404C34.4549 3.21372 34.483 4.85443 34.4789 6.49514C34.4789 7.41394 34.0309 7.86293 33.1132 7.86501C31.3943 7.86501 29.6755 7.87334 27.9577 7.86501C27.0118 7.8598 26.4211 7.09622 26.7274 6.29097C26.8008 6.06528 26.9451 5.8693 27.1388 5.73212C27.3324 5.59494 27.5652 5.52387 27.8025 5.52947C28.3879 5.51697 28.9744 5.52947 29.5598 5.52947H30.0453C29.8713 5.39196 29.7922 5.32112 29.7015 5.25862C26.3534 3.07517 22.6741 2.0449 18.6905 2.42096C11.7235 3.07933 6.68672 6.63057 3.83344 12.9997C1.50519 18.1968 1.86459 23.4065 4.49911 28.4557C4.63557 28.7182 4.7887 28.9912 4.83662 29.2756C4.8803 29.5418 4.82635 29.8149 4.68472 30.0446C4.54309 30.2743 4.32328 30.4451 4.06575 30.5256C3.53655 30.6985 2.95423 30.5121 2.68963 29.9954C2.18544 29.0141 1.66458 28.0338 1.27497 27.0036C-0.537116 22.1771 -0.413555 16.8369 1.61983 12.0994C3.65322 7.36191 7.43905 3.59368 12.186 1.58238C14.1629 0.736272 16.2667 0.224757 18.4113 0.0687541C18.5261 0.0535285 18.6399 0.0312616 18.752 0.0020823H21.174C21.2866 0.0296301 21.4007 0.0508435 21.5157 0.0656259C24.9594 0.309183 28.2779 1.45728 31.136 3.39393C31.4547 3.60228 31.7662 3.83042 32.1402 4.08876C32.1402 3.19601 32.1673 2.37825 32.1319 1.56258C32.0985 0.788583 32.3767 0.255222 33.1278 0L33.5153 0.0020823Z" fill="white"/>
<path d="M40 21.2533C39.8958 21.9992 39.8114 22.7471 39.6875 23.4899C38.4207 31.2976 32.0829 37.9302 24.3158 39.5324C18.4467 40.7429 13.0558 39.623 8.16907 36.1249C8.08781 36.0666 8.00552 36.0114 7.87634 35.9228C7.86593 36.103 7.85342 36.226 7.85342 36.3499C7.85342 37.1437 7.8628 37.9386 7.85342 38.7324C7.84092 39.4616 7.33986 39.9824 6.6794 39.9824C6.01895 39.9824 5.51996 39.4616 5.51684 38.7271C5.5092 36.9437 5.5092 35.1603 5.51684 33.3769C5.51684 32.6268 5.98458 32.1507 6.73878 32.1445C8.53541 32.1299 10.332 32.1299 12.1287 32.1445C12.8506 32.1507 13.3683 32.6924 13.3454 33.3498C13.3225 34.0071 12.8172 34.4707 12.0953 34.48C11.4213 34.4884 10.7463 34.48 10.0296 34.5571C10.1233 34.6259 10.2129 34.6998 10.3098 34.7655C13.6527 36.9333 17.3102 37.9011 21.2854 37.6C25.8596 37.2531 29.7234 35.3863 32.8662 32.058C35.4799 29.2871 37.0259 25.9879 37.4998 22.2002C37.9842 18.3281 37.2415 14.6998 35.3435 11.2944C35.0872 10.835 35.031 10.3808 35.3341 9.93391C35.606 9.52868 36.006 9.37659 36.4883 9.44743C36.6634 9.47126 36.8303 9.53641 36.9752 9.63748C37.1201 9.73855 37.2389 9.87266 37.3217 10.0287C38.6594 12.3428 39.5178 14.9024 39.8458 17.5552C39.8958 17.9541 39.95 18.3521 40 18.75V21.2533Z" fill="white"/>
<path d="M14.9382 13.0185C15.4112 12.7539 15.8685 12.508 16.3122 12.2392C16.3592 12.2036 16.398 12.1585 16.4262 12.1068C16.4544 12.0551 16.4713 11.998 16.4758 11.9392C16.4945 11.51 16.4758 11.0798 16.4852 10.6506C16.4998 9.96204 16.9842 9.4641 17.6696 9.45993C19.2183 9.45021 20.7674 9.45021 22.3167 9.45993C23.0064 9.45993 23.4939 9.95371 23.5137 10.6392C23.5283 11.1454 23.3626 11.7507 23.5866 12.132C23.8106 12.5132 24.4106 12.6778 24.8575 12.9143C24.916 12.9398 24.9791 12.953 25.0429 12.953C25.1067 12.953 25.1699 12.9398 25.2284 12.9143C25.6107 12.7205 25.9721 12.4861 26.3503 12.2893C26.9753 11.9559 27.6056 12.1142 27.9681 12.7289C28.7549 14.0609 29.5289 15.4009 30.2901 16.7489C30.6474 17.3833 30.4588 17.9989 29.8276 18.3917C29.4963 18.6 29.1588 18.7948 28.815 18.9771C28.6338 19.073 28.5525 19.175 28.5681 19.3938C28.5952 19.8105 28.5598 20.2272 28.5827 20.6439C28.5891 20.7137 28.6096 20.7816 28.6429 20.8433C28.6762 20.9051 28.7216 20.9595 28.7765 21.0033C29.1223 21.2335 29.4973 21.42 29.8494 21.6387C30.4568 22.0179 30.6432 22.6367 30.2953 23.2555C29.5314 24.6153 28.7511 25.9664 27.9545 27.3088C27.6035 27.8964 26.9785 28.0453 26.3607 27.7297C26.1294 27.6109 25.9086 27.4734 25.6825 27.3442L25.0575 26.989C24.5846 27.2536 24.1262 27.4984 23.6824 27.7672C23.6355 27.8028 23.5967 27.8479 23.5685 27.8997C23.5403 27.9514 23.5234 28.0085 23.5189 28.0672C23.5001 28.4964 23.5189 28.9266 23.5085 29.3558C23.4928 30.0444 23.0095 30.5423 22.324 30.5475C20.7753 30.558 19.2263 30.558 17.6769 30.5475C16.9706 30.5475 16.4914 30.0433 16.48 29.3287C16.4727 28.8599 16.6279 28.3089 16.431 27.9464C16.2341 27.5838 15.6737 27.463 15.308 27.1859C15.0424 26.9848 14.8445 27.0046 14.5882 27.1776C14.2842 27.3779 13.9691 27.5609 13.6444 27.7255C13.0194 28.0547 12.3943 27.8964 12.0297 27.2828C11.2429 25.9508 10.4689 24.6108 9.70772 23.2628C9.35041 22.6304 9.54208 22.0127 10.1723 21.621C10.5046 21.4127 10.8422 21.2199 11.1859 21.0366C11.3661 20.9408 11.4464 20.8355 11.4307 20.6126C11.4026 20.1959 11.4391 19.7792 11.4151 19.3626C11.4087 19.2927 11.3882 19.2248 11.3549 19.1631C11.3216 19.1013 11.2762 19.0469 11.2213 19.0032C10.8984 18.7854 10.5473 18.6104 10.213 18.4104C9.52438 17.9937 9.34624 17.3749 9.74001 16.6822C10.4859 15.371 11.2401 14.0647 12.0026 12.7632C12.3954 12.0934 13.0214 11.9299 13.7059 12.3101C14.1288 12.5434 14.5413 12.7903 14.9382 13.0185ZM12.311 16.9145C12.6443 17.1083 12.936 17.2739 13.2267 17.4468C13.7756 17.7739 13.9173 18.1948 13.8704 18.8261C13.8108 19.6006 13.809 20.3785 13.8652 21.1533C13.9173 21.8346 13.784 22.2283 13.184 22.5846L12.3131 23.0992L13.4808 25.1181C13.7934 24.9379 14.0871 24.7691 14.3788 24.6045C14.9715 24.2701 15.3747 24.3441 15.9289 24.7191C16.571 25.1554 17.2428 25.5463 17.9394 25.889C18.5592 26.1921 18.8228 26.5015 18.8259 27.2057C18.8259 27.538 18.8259 27.8693 18.8259 28.188H21.1698C21.1698 27.8161 21.1698 27.4672 21.1698 27.1182C21.1781 26.5182 21.4323 26.139 22.0032 25.9296C22.7761 25.6516 23.4922 25.2358 24.1168 24.7024C24.5617 24.3191 25.0544 24.2805 25.5617 24.5712L26.5232 25.117L27.69 23.093C27.3566 22.9013 27.0649 22.7367 26.7732 22.5638C26.2211 22.2335 26.0815 21.8158 26.1284 21.1856C26.1886 20.4111 26.1907 19.6332 26.1347 18.8584C26.0826 18.1739 26.2149 17.7812 26.8149 17.427L27.6879 16.9124L26.5222 14.8956C26.1857 15.0884 25.8721 15.2696 25.5565 15.4467C25.044 15.7332 24.5564 15.6894 24.1116 15.3061C23.4983 14.7795 22.794 14.3692 22.0334 14.0956C21.425 13.8727 21.1792 13.5018 21.174 12.8455C21.174 12.5007 21.174 12.1549 21.174 11.8226H18.8301C18.8301 12.1809 18.8301 12.5163 18.8301 12.8518C18.8238 13.4987 18.5488 13.8206 17.9707 14.1081C17.2647 14.4595 16.582 14.8558 15.9268 15.2946C15.3872 15.6561 14.9809 15.7342 14.4101 15.4175C14.1059 15.2488 13.8059 15.0748 13.4829 14.8967L12.311 16.9145Z" fill="white"/>
<path d="M19.9989 15.707C21.1374 15.7098 22.2285 16.1633 23.0336 16.9684C23.8387 17.7734 24.2922 18.8646 24.2949 20.0031C24.2916 21.1415 23.838 22.2323 23.033 23.0372C22.2281 23.8422 21.1373 24.2959 19.9989 24.2992C18.8607 24.295 17.7703 23.8409 16.9657 23.0359C16.161 22.2309 15.7074 21.1403 15.7039 20.0021C15.7077 18.8641 16.1614 17.7739 16.9661 16.9693C17.7707 16.1646 18.861 15.7109 19.9989 15.707ZM21.95 19.9989C21.9478 19.48 21.7396 18.9831 21.3712 18.6176C21.0028 18.2522 20.5043 18.0479 19.9853 18.0499C19.4732 18.0547 18.9834 18.2601 18.621 18.622C18.2586 18.9838 18.0524 19.4733 18.0467 19.9854C18.0439 20.5043 18.2472 21.003 18.6118 21.3722C18.9765 21.7413 19.4727 21.9507 19.9916 21.9542C20.5105 21.9545 21.0082 21.7489 21.3756 21.3825C21.743 21.0161 21.95 20.5188 21.9511 20L21.95 19.9989Z" fill="white"/>
</svg>
