<svg width="30" height="30" viewBox="0 0 30 30" fill="none" xmlns="http://www.w3.org/2000/svg">
<path d="M14.707 30.0008C14.6289 29.9625 14.557 29.9227 14.4804 29.8852C13.9703 29.6469 13.6992 29.1422 13.7679 28.5648C13.8001 28.3057 13.9165 28.0643 14.0993 27.8778C14.2821 27.6913 14.5212 27.5701 14.7797 27.5328C15.2523 27.4711 15.7336 27.4797 16.2093 27.4344C21.5468 26.9297 26.0054 23.0148 27.1828 17.8023C28.6789 11.1766 24.7187 4.62969 18.1351 2.91094C17.2281 2.67656 16.2687 2.6375 15.3328 2.51172C15.0922 2.47969 14.8406 2.49219 14.6093 2.42813C14.3742 2.35682 14.1667 2.21502 14.0148 2.02192C13.863 1.82881 13.774 1.59372 13.7601 1.34844C13.7382 1.09853 13.7926 0.847832 13.9162 0.629516C14.0398 0.411199 14.2267 0.235543 14.4523 0.12578L14.707 0H15.9375C16.0116 0.021052 16.087 0.036974 16.1633 0.0476551C18.4883 0.224218 20.664 0.889064 22.6523 2.10625C26.5422 4.4875 28.9304 7.92266 29.7703 12.4188C29.8718 12.9656 29.9265 13.5164 30 14.0664V15.9414C29.9786 16.0157 29.9624 16.0914 29.9515 16.168C29.775 18.482 29.1156 20.6508 27.907 22.6312C25.5258 26.5375 22.0867 28.932 17.5828 29.7734C17.0359 29.875 16.489 29.9297 15.9367 30.0031L14.707 30.0008Z" fill="#333333"/>
<path d="M0 14.7076C0.0390625 14.6295 0.0781259 14.5591 0.115626 14.4826C0.234829 14.2227 0.439221 14.0113 0.694959 13.8834C0.950698 13.7556 1.24244 13.7189 1.52188 13.7795C1.79979 13.844 2.04778 14.0005 2.22572 14.2235C2.40366 14.4465 2.50112 14.7231 2.50234 15.0084C2.49734 15.2886 2.39964 15.5592 2.22451 15.778C2.04938 15.9969 1.80669 16.1515 1.53438 16.2177C1.25103 16.2825 0.953983 16.2464 0.694337 16.1158C0.434691 15.9852 0.228673 15.7682 0.111718 15.5021C0.0726557 15.4138 0.0375008 15.324 0.000782013 15.2341C0.00026118 15.0591 0 14.8836 0 14.7076Z" fill="#333333"/>
<path d="M16.2453 10.6585C16.2453 11.3124 16.2375 11.9663 16.2531 12.6202C16.2581 12.6831 16.2755 12.7443 16.3043 12.8004C16.3331 12.8565 16.3728 12.9062 16.4211 12.9468C17.8664 14.0101 17.8641 15.9937 16.4164 17.0585C16.3685 17.0996 16.3293 17.1499 16.3011 17.2064C16.2729 17.2629 16.2564 17.3244 16.2524 17.3874C16.2383 18.2749 16.2524 19.164 16.2383 20.0515C16.2266 20.6851 15.7641 21.1624 15.125 21.2437C14.8362 21.2739 14.546 21.2014 14.3053 21.0389C14.0646 20.8765 13.8887 20.6345 13.8086 20.3554C13.7698 20.1946 13.7525 20.0294 13.7571 19.864C13.7524 19.064 13.7485 18.2632 13.7571 17.4632C13.7659 17.3736 13.7495 17.2834 13.7097 17.2026C13.67 17.1218 13.6084 17.0538 13.5321 17.0062C13.2106 16.778 12.9486 16.4759 12.7682 16.1254C12.5879 15.7748 12.4944 15.386 12.4957 14.9918C12.497 14.5976 12.5931 14.2094 12.7757 13.8601C12.9584 13.5107 13.2223 13.2103 13.5453 12.9843C13.6146 12.9431 13.671 12.8834 13.7082 12.8119C13.7455 12.7404 13.7621 12.66 13.7563 12.5796C13.749 11.2916 13.749 10.0033 13.7563 8.71477C13.7574 8.45885 13.8395 8.20985 13.9908 8.00341C14.142 7.79698 14.3548 7.64372 14.5985 7.56555C15.0985 7.39993 15.6641 7.53977 15.9578 7.97727C16.1141 8.20618 16.15 8.51321 16.2391 8.78509C16.242 8.80451 16.242 8.82426 16.2391 8.84368C16.2432 9.44837 16.2453 10.0533 16.2453 10.6585Z" fill="#333333"/>
<path d="M2.29763 10.9722C2.13404 10.976 1.97133 10.9472 1.81907 10.8872C1.66681 10.8272 1.52807 10.7375 1.41102 10.6231C1.29397 10.5087 1.20097 10.3721 1.13749 10.2213C1.07402 10.0705 1.04134 9.90849 1.04138 9.74485C1.03774 9.58125 1.06681 9.41857 1.12689 9.26635C1.18697 9.11413 1.27684 8.97545 1.39123 8.85843C1.50563 8.74142 1.64224 8.64843 1.79306 8.58492C1.94388 8.52141 2.10586 8.48867 2.26951 8.4886C2.43307 8.48486 2.59574 8.51383 2.74795 8.57382C2.90016 8.63381 3.03885 8.72361 3.15588 8.83794C3.27291 8.95228 3.36591 9.08884 3.42943 9.23961C3.49295 9.39039 3.5257 9.55234 3.52576 9.71595C3.52951 9.87958 3.50051 10.0423 3.44047 10.1946C3.38043 10.3468 3.29056 10.4856 3.17614 10.6026C3.06173 10.7196 2.92507 10.8126 2.7742 10.8761C2.62334 10.9396 2.46131 10.9722 2.29763 10.9722Z" fill="#333333"/>
<path d="M3.5258 20.263C3.5285 20.4267 3.49851 20.5892 3.43758 20.7411C3.37666 20.893 3.28602 21.0312 3.17098 21.1476C3.05594 21.2641 2.91882 21.3564 2.76765 21.4191C2.61648 21.4818 2.45431 21.5138 2.29064 21.513C2.12691 21.516 1.96423 21.4863 1.81217 21.4255C1.66012 21.3646 1.52178 21.274 1.4053 21.1589C1.28881 21.0438 1.19654 20.9066 1.13391 20.7552C1.07128 20.6039 1.03957 20.4416 1.04064 20.2779C1.03783 20.1117 1.06873 19.9466 1.13149 19.7927C1.19425 19.6388 1.28756 19.4992 1.40578 19.3824C1.524 19.2656 1.66468 19.1739 1.81932 19.113C1.97396 19.052 2.13934 19.0231 2.30549 19.0279C2.46673 19.0288 2.62621 19.0615 2.77482 19.124C2.92343 19.1866 3.05825 19.2779 3.17157 19.3926C3.2849 19.5073 3.37451 19.6432 3.43529 19.7925C3.49607 19.9419 3.52683 20.1018 3.5258 20.263Z" fill="#333333"/>
<path d="M10.9664 27.7016C10.9668 27.8656 10.9347 28.028 10.872 28.1795C10.8092 28.331 10.7171 28.4685 10.6009 28.5842C10.4846 28.6999 10.3466 28.7913 10.1948 28.8533C10.043 28.9153 9.88039 28.9466 9.71642 28.9453C9.55284 28.9452 9.39091 28.9128 9.23995 28.8498C9.08899 28.7868 8.952 28.6945 8.83689 28.5783C8.72177 28.4621 8.6308 28.3242 8.56922 28.1727C8.50765 28.0211 8.47669 27.8589 8.47814 27.6953C8.4772 27.5309 8.5089 27.368 8.57139 27.2159C8.63388 27.0638 8.72592 26.9256 8.84218 26.8094C8.95844 26.6931 9.0966 26.6011 9.24868 26.5386C9.40076 26.4761 9.56372 26.4444 9.72814 26.4453C9.89218 26.4456 10.0545 26.4785 10.2058 26.5419C10.3571 26.6054 10.4943 26.6982 10.6094 26.815C10.7246 26.9319 10.8154 27.0704 10.8767 27.2226C10.938 27.3747 10.9685 27.5375 10.9664 27.7016Z" fill="#333333"/>
<path d="M10.9664 2.31478C10.9658 2.47882 10.9326 2.64112 10.8688 2.79224C10.805 2.94337 10.7118 3.08032 10.5947 3.19515C10.4775 3.30998 10.3387 3.4004 10.1863 3.46117C10.034 3.52194 9.87104 3.55185 9.70702 3.54916C9.54337 3.54754 9.38167 3.51348 9.23127 3.44894C9.08088 3.38441 8.94478 3.29069 8.83085 3.1732C8.71692 3.05571 8.62743 2.91679 8.56755 2.76448C8.50767 2.61217 8.4786 2.44949 8.48202 2.28587C8.48283 2.12226 8.51605 1.96044 8.57977 1.80974C8.64349 1.65905 8.73644 1.52248 8.85325 1.40792C8.97006 1.29336 9.10842 1.20308 9.26033 1.14231C9.41223 1.08154 9.57467 1.05147 9.73827 1.05384C9.90195 1.05516 10.0637 1.08891 10.2143 1.15315C10.3649 1.21739 10.5012 1.31085 10.6154 1.42811C10.7296 1.54537 10.8194 1.6841 10.8797 1.8363C10.9399 1.98849 10.9694 2.15112 10.9664 2.31478Z" fill="#333333"/>
<path d="M4.03437 5.24837C4.03468 5.08482 4.0673 4.92294 4.13036 4.77203C4.19342 4.62113 4.28568 4.48417 4.40183 4.36903C4.51799 4.25389 4.65575 4.16284 4.80721 4.1011C4.95866 4.03937 5.12082 4.00817 5.28437 4.00931C5.44806 4.01042 5.6099 4.04394 5.76056 4.10792C5.91122 4.17191 6.04773 4.26509 6.1622 4.3821C6.27666 4.49911 6.36683 4.63763 6.42749 4.78966C6.48815 4.94169 6.5181 5.10423 6.51562 5.2679C6.51542 5.43137 6.48285 5.59319 6.4198 5.74401C6.35675 5.89484 6.26446 6.03168 6.14825 6.14666C6.03204 6.26163 5.89422 6.35246 5.74273 6.41389C5.59124 6.47533 5.42909 6.50617 5.26562 6.50462C5.10208 6.50371 4.94033 6.47041 4.78973 6.40664C4.63913 6.34288 4.50264 6.24991 4.38817 6.13311C4.27369 6.01631 4.18349 5.87799 4.12276 5.72613C4.06204 5.57428 4.032 5.4119 4.03437 5.24837Z" fill="#333333"/>
<path d="M6.51872 24.7237C6.52224 24.8875 6.49326 25.0503 6.43346 25.2029C6.37366 25.3554 6.28422 25.4946 6.17031 25.6123C6.0564 25.7301 5.92028 25.8241 5.76982 25.8889C5.61936 25.9538 5.45754 25.9881 5.29372 25.9901C5.13005 25.9926 4.96749 25.9628 4.81542 25.9022C4.66334 25.8417 4.52477 25.7516 4.40769 25.6372C4.2906 25.5228 4.19734 25.3864 4.13326 25.2357C4.06918 25.0851 4.03556 24.9233 4.03434 24.7596C4.03082 24.5959 4.05982 24.4332 4.11966 24.2809C4.1795 24.1285 4.26898 23.9896 4.38293 23.872C4.49688 23.7545 4.63303 23.6608 4.78347 23.5963C4.93391 23.5318 5.09566 23.4978 5.25934 23.4963C5.42289 23.4932 5.58543 23.5226 5.73753 23.5828C5.88963 23.643 6.02827 23.7327 6.14542 23.8469C6.26256 23.9611 6.35588 24.0974 6.41996 24.2479C6.48404 24.3984 6.51761 24.5601 6.51872 24.7237Z" fill="#333333"/>
</svg>
