<svg width="26" height="26" viewBox="0 0 26 26" fill="none" xmlns="http://www.w3.org/2000/svg">
<path d="M13.1734 11.7757C13.0651 11.7648 12.9351 11.7648 12.8159 11.7757C10.2376 11.689 8.19006 9.5765 8.19006 6.9765C8.19006 4.32234 10.3351 2.1665 13.0001 2.1665C15.6542 2.1665 17.8101 4.32234 17.8101 6.9765C17.7992 9.5765 15.7517 11.689 13.1734 11.7757Z" stroke="#343434" stroke-opacity="0.7" stroke-width="1.5" stroke-linecap="round" stroke-linejoin="round"/>
<path d="M7.75672 15.7735C5.13505 17.5285 5.13505 20.3885 7.75672 22.1327C10.7359 24.126 15.6217 24.126 18.6009 22.1327C21.2225 20.3777 21.2225 17.5177 18.6009 15.7735C15.6325 13.791 10.7467 13.791 7.75672 15.7735Z" stroke="#343434" stroke-opacity="0.7" stroke-width="1.5" stroke-linecap="round" stroke-linejoin="round"/>
</svg>
