<svg width="36" height="36" viewBox="0 0 36 36" fill="none" xmlns="http://www.w3.org/2000/svg">
<path d="M10.5 15H15V10.5L9.74999 5.25003C11.4294 4.44794 13.3162 4.18623 15.1506 4.50096C16.9849 4.81568 18.6766 5.69135 19.9926 7.00738C21.3087 8.32342 22.1843 10.0151 22.4991 11.8494C22.8138 13.6838 22.5521 15.5706 21.75 17.25L30.75 26.25C31.3467 26.8468 31.682 27.6561 31.682 28.5C31.682 29.3439 31.3467 30.1533 30.75 30.75C30.1533 31.3468 29.3439 31.682 28.5 31.682C27.6561 31.682 26.8467 31.3468 26.25 30.75L17.25 21.75C15.5706 22.5521 13.6837 22.8138 11.8494 22.4991C10.015 22.1844 8.32339 21.3087 7.00735 19.9927C5.69132 18.6766 4.81565 16.985 4.50093 15.1506C4.1862 13.3163 4.44791 11.4295 5.24999 9.75003L10.5 15Z" stroke="#2E3234" stroke-width="3" stroke-linecap="round" stroke-linejoin="round"/>
</svg>
