<svg width="20" height="14" viewBox="0 0 20 14" fill="none" xmlns="http://www.w3.org/2000/svg">
<defs>
<filter id="filter0_d_3287_2091" x="0.952637" y="0.933594" width="6.6665" height="5.6665" filterUnits="userSpaceOnUse" color-interpolation-filters="sRGB">
<feFlood flood-opacity="0" result="BackgroundImageFix"/>
<feColorMatrix in="SourceAlpha" type="matrix" values="0 0 0 0 0 0 0 0 0 0 0 0 0 0 0 0 0 0 127 0" result="hardAlpha"/>
<feOffset dy="1"/>
<feColorMatrix type="matrix" values="0 0 0 0 0 0 0 0 0 0 0 0 0 0 0 0 0 0 0.06 0"/>
<feBlend mode="normal" in2="BackgroundImageFix" result="effect1_dropShadow_3287_2091"/>
<feBlend mode="normal" in="SourceGraphic" in2="effect1_dropShadow_3287_2091" result="shape"/>
</filter>
<linearGradient id="paint0_linear_3287_2091" x1="0.952637" y1="0.933594" x2="0.952637" y2="5.60014" gradientUnits="userSpaceOnUse">
<stop stop-color="white"/>
<stop offset="1" stop-color="#F0F0F0"/>
</linearGradient>
</defs>
<rect width="20" height="14" rx="2" fill="white"/>
<mask id="mask0_3287_2091" style="mask-type:luminance" maskUnits="userSpaceOnUse" x="0" y="0" width="20" height="14">
<rect width="20" height="14" rx="2" fill="white"/>
</mask>
<g mask="url(#mask0_3287_2091)">
<path fill-rule="evenodd" clip-rule="evenodd" d="M20 0H0V0.933333H20V0ZM20 1.86664H0V2.79997H20V1.86664ZM0 3.73328H20V4.66661H0V3.73328ZM20 5.59991H0V6.53325H20V5.59991ZM0 7.46655H20V8.39989H0V7.46655ZM20 9.33362H0V10.267H20V9.33362ZM0 11.1998H20V12.1332H0V11.1998ZM20 13.0665H0V13.9998H20V13.0665Z" fill="#D02F44"/>
<rect width="8.57143" height="6.53333" fill="#46467F"/>
<g filter="url(#filter0_d_3287_2091)">
<path fill-rule="evenodd" clip-rule="evenodd" d="M1.90502 1.40026C1.90502 1.65799 1.69182 1.86693 1.42883 1.86693C1.16583 1.86693 0.952637 1.65799 0.952637 1.40026C0.952637 1.14253 1.16583 0.933594 1.42883 0.933594C1.69182 0.933594 1.90502 1.14253 1.90502 1.40026ZM3.8097 1.40026C3.8097 1.65799 3.5965 1.86693 3.33351 1.86693C3.07052 1.86693 2.85732 1.65799 2.85732 1.40026C2.85732 1.14253 3.07052 0.933594 3.33351 0.933594C3.5965 0.933594 3.8097 1.14253 3.8097 1.40026ZM5.2383 1.86693C5.50129 1.86693 5.71449 1.65799 5.71449 1.40026C5.71449 1.14253 5.50129 0.933594 5.2383 0.933594C4.9753 0.933594 4.76211 1.14253 4.76211 1.40026C4.76211 1.65799 4.9753 1.86693 5.2383 1.86693ZM7.61915 1.40026C7.61915 1.65799 7.40595 1.86693 7.14296 1.86693C6.87997 1.86693 6.66677 1.65799 6.66677 1.40026C6.66677 1.14253 6.87997 0.933594 7.14296 0.933594C7.40595 0.933594 7.61915 1.14253 7.61915 1.40026ZM2.38136 2.80052C2.64436 2.80052 2.85755 2.59159 2.85755 2.33385C2.85755 2.07612 2.64436 1.86719 2.38136 1.86719C2.11837 1.86719 1.90517 2.07612 1.90517 2.33385C1.90517 2.59159 2.11837 2.80052 2.38136 2.80052ZM4.76185 2.33385C4.76185 2.59159 4.54865 2.80052 4.28566 2.80052C4.02267 2.80052 3.80947 2.59159 3.80947 2.33385C3.80947 2.07612 4.02267 1.86719 4.28566 1.86719C4.54865 1.86719 4.76185 2.07612 4.76185 2.33385ZM6.19044 2.80052C6.45344 2.80052 6.66664 2.59159 6.66664 2.33385C6.66664 2.07612 6.45344 1.86719 6.19044 1.86719C5.92745 1.86719 5.71425 2.07612 5.71425 2.33385C5.71425 2.59159 5.92745 2.80052 6.19044 2.80052ZM7.61915 3.26696C7.61915 3.52469 7.40595 3.73363 7.14296 3.73363C6.87997 3.73363 6.66677 3.52469 6.66677 3.26696C6.66677 3.00923 6.87997 2.80029 7.14296 2.80029C7.40595 2.80029 7.61915 3.00923 7.61915 3.26696ZM5.2383 3.73363C5.50129 3.73363 5.71449 3.52469 5.71449 3.26696C5.71449 3.00923 5.50129 2.80029 5.2383 2.80029C4.9753 2.80029 4.76211 3.00923 4.76211 3.26696C4.76211 3.52469 4.9753 3.73363 5.2383 3.73363ZM3.8097 3.26696C3.8097 3.52469 3.5965 3.73363 3.33351 3.73363C3.07052 3.73363 2.85732 3.52469 2.85732 3.26696C2.85732 3.00923 3.07052 2.80029 3.33351 2.80029C3.5965 2.80029 3.8097 3.00923 3.8097 3.26696ZM1.42885 3.7335C1.69184 3.7335 1.90504 3.52457 1.90504 3.26684C1.90504 3.0091 1.69184 2.80017 1.42885 2.80017C1.16585 2.80017 0.952657 3.0091 0.952657 3.26684C0.952657 3.52457 1.16585 3.7335 1.42885 3.7335ZM2.85755 4.20007C2.85755 4.4578 2.64436 4.66673 2.38136 4.66673C2.11837 4.66673 1.90517 4.4578 1.90517 4.20007C1.90517 3.94233 2.11837 3.7334 2.38136 3.7334C2.64436 3.7334 2.85755 3.94233 2.85755 4.20007ZM4.28566 4.66673C4.54865 4.66673 4.76185 4.4578 4.76185 4.20007C4.76185 3.94233 4.54865 3.7334 4.28566 3.7334C4.02267 3.7334 3.80947 3.94233 3.80947 4.20007C3.80947 4.4578 4.02267 4.66673 4.28566 4.66673ZM6.66664 4.20007C6.66664 4.4578 6.45344 4.66673 6.19044 4.66673C5.92745 4.66673 5.71425 4.4578 5.71425 4.20007C5.71425 3.94233 5.92745 3.7334 6.19044 3.7334C6.45344 3.7334 6.66664 3.94233 6.66664 4.20007ZM7.14296 5.60008C7.40595 5.60008 7.61915 5.39115 7.61915 5.13341C7.61915 4.87568 7.40595 4.66675 7.14296 4.66675C6.87997 4.66675 6.66677 4.87568 6.66677 5.13341C6.66677 5.39115 6.87997 5.60008 7.14296 5.60008ZM5.71449 5.13341C5.71449 5.39115 5.50129 5.60008 5.2383 5.60008C4.9753 5.60008 4.76211 5.39115 4.76211 5.13341C4.76211 4.87568 4.9753 4.66675 5.2383 4.66675C5.50129 4.66675 5.71449 4.87568 5.71449 5.13341ZM3.33351 5.60008C3.5965 5.60008 3.8097 5.39115 3.8097 5.13341C3.8097 4.87568 3.5965 4.66675 3.33351 4.66675C3.07052 4.66675 2.85732 4.87568 2.85732 5.13341C2.85732 5.39115 3.07052 5.60008 3.33351 5.60008ZM1.90504 5.13348C1.90504 5.39121 1.69184 5.60014 1.42885 5.60014C1.16585 5.60014 0.952657 5.39121 0.952657 5.13348C0.952657 4.87574 1.16585 4.66681 1.42885 4.66681C1.69184 4.66681 1.90504 4.87574 1.90504 5.13348Z" fill="url(#paint0_linear_3287_2091)"/>
</g>
</g>
</svg>
